<svg id="a966edd1-bc63-4411-b036-25879d78e22c" data-name="Capa 1" xmlns="http://www.w3.org/2000/svg" viewBox="0 0 156.66 247.42"><defs><style>.b551dd2c-1aec-4d4e-9751-57603c6dd116{fill:#381a3e;}.fffece3a-285b-4b2d-87c1-171de1b6114f{fill:#c5c4e3;}.abebc4c0-ffa4-4db7-bfb8-baa24f4dc9a9{fill:#5972b6;}.f4ef1ecb-0011-4f3c-83c6-fe8664631f08{fill:#374b50;}.f74073af-7879-4ebd-9374-7b31cc0e5577{fill:#eb5f5d;}.a4e3e8e5-869f-4355-a87a-fc33c1bddb03{fill:#c4d4ef;}.a2c97474-21e9-42f1-bda0-29ae4ed1b7c7{fill:#432c47;}.ec6ddf4a-d36c-4611-83a3-e89db0ba8bdd{fill:#294180;}.e047cbd7-82d7-4fa7-a5d5-78207dccd09d{fill:#35518f;}.fd930158-dff1-40b0-a976-2eacd644eb07{fill:#5b94b3;}.a957011e-20c6-4c16-838f-2d1816bddbb0{fill:#ee7476;}.e031a6c8-bad7-472e-b0aa-8944248f3988{fill:#5d2d55;}.a01fa89d-5c70-4c2a-8d59-e04861c2cc83{fill:#2e499a;}.e28e5a42-d897-4d5b-b20e-d158c2948b65{fill:#283476;}.bc70060d-d8ed-4635-89e2-b916fccf1a43{fill:#704e78;}.bb2aaaf2-c595-46da-a53e-e2d43e38c0f2{fill:#653870;}.bcb3b97d-7781-4c94-9721-776419eb0885{fill:#6ec0aa;}.a9197900-6ee0-44c5-bed2-7ea104f5c860{fill:#7ec7b9;}.bca5b10a-4cba-4edd-ac93-ce5d28fbc6f3{fill:#626aa2;}.b2c3838c-d68a-40e3-b8e9-35edac049e6b{fill:#363a68;}.f192d3e7-7d3e-4def-9a9f-d40e825d1c79{fill:#6bc4cd;}.e59724f8-0ffe-4743-9bf2-f5e916aa6b55{fill:#67b32e;}</style></defs><polygon class="b551dd2c-1aec-4d4e-9751-57603c6dd116" points="145.57 69.06 144.74 62.95 139.87 62.95 139.04 69.06 137.24 69.06 137.24 70.06 147.37 70.06 147.37 69.06 145.57 69.06"/><path class="fffece3a-285b-4b2d-87c1-171de1b6114f" d="M83.37,80.68l0-.07-2-3.17L80,74c-.05,1.23-.11,2.46-.16,3.69l-.75,3.64.06.06,1.25-1.11a51.32,51.32,0,0,0,8.21,20l3.23-2.51A48.69,48.69,0,0,1,81.82,80.08Z" transform="translate(-46.67 -1.29)"/><path class="fffece3a-285b-4b2d-87c1-171de1b6114f" d="M181,76l-3.46-.51a48.52,48.52,0,0,1-5.28,18.08L171.53,92l-.07,0-.82,3.62-1.4,3.42,2.7-2.52L175,94.51v-.09l-1.74-.1A50.74,50.74,0,0,0,181,76Z" transform="translate(-46.67 -1.29)"/><path class="fffece3a-285b-4b2d-87c1-171de1b6114f" d="M169.8,38.36,168.21,33l-.81,1.56a51.57,51.57,0,0,0-9.63-9.26l-1.45,2.23a49.2,49.2,0,0,1,10.21,7.73l-1.68.5Z" transform="translate(-46.67 -1.29)"/><path class="fffece3a-285b-4b2d-87c1-171de1b6114f" d="M97.24,29.46a51.42,51.42,0,0,0-8.86,7.91l2.65,2a48.38,48.38,0,0,1,7-8.81l.39,1.55,2.8-4.85L95.8,28.63Z" transform="translate(-46.67 -1.29)"/><polygon class="abebc4c0-ffa4-4db7-bfb8-baa24f4dc9a9" points="73.43 77.27 87.89 93.66 81.86 104.05 74.73 91.49 73.43 77.27"/><polygon class="f4ef1ecb-0011-4f3c-83c6-fe8664631f08" points="85.35 112.57 67.1 109.95 109.69 110.94 111.66 113.65 85.35 112.57"/><path class="f74073af-7879-4ebd-9374-7b31cc0e5577" d="M100.26,79.84S79.67,106.2,80.4,111.24s7.14,3.57,9.48,1.23S102.07,92,102.07,92Z" transform="translate(-46.67 -1.29)"/><path class="a4e3e8e5-869f-4355-a87a-fc33c1bddb03" d="M46.67,245.46c0,1.79,16.47,3.25,36.78,3.25s36.77-1.46,36.77-3.25-16.46-3.26-36.77-3.26S46.67,243.66,46.67,245.46Z" transform="translate(-46.67 -1.29)"/><path class="a2c97474-21e9-42f1-bda0-29ae4ed1b7c7" d="M113.9,157.74l-12.12,83.07,5.75-.94,9.88-45s6.5-41.79,6.5-56.87Z" transform="translate(-46.67 -1.29)"/><path class="a2c97474-21e9-42f1-bda0-29ae4ed1b7c7" d="M82.75,245.79H93.57l-7-4.23.77-3.36c-1.6,0-2,1.06-3.61,1.06C83.27,241.73,82.75,245.79,82.75,245.79Z" transform="translate(-46.67 -1.29)"/><path class="a2c97474-21e9-42f1-bda0-29ae4ed1b7c7" d="M102.48,244.78l11,.43-7-4.24.77-3.36c-1.61,0-2,1.06-3.61,1.06Z" transform="translate(-46.67 -1.29)"/><path class="ec6ddf4a-d36c-4611-83a3-e89db0ba8bdd" d="M123.51,125.73c-11.92.26-16.91,7-28,10l.44,3.16-.77,53.17S83.76,229.55,81.46,242c0,0,6.54-.39,6.16-.39l19.25-44.46,8.69-40.61,7.12-15.79Z" transform="translate(-46.67 -1.29)"/><polygon class="e047cbd7-82d7-4fa7-a5d5-78207dccd09d" points="68.89 155.25 58.48 195.28 40.95 240.32 60.2 195.86 68.89 155.25"/><path class="fd930158-dff1-40b0-a976-2eacd644eb07" d="M105.62,76.85A20.11,20.11,0,0,1,121,79.07c7.12,4.22,9.06,45.29,7.9,61.33-11.64,1.79-23.4,4-34.85,1.95l.2-.73,4.35-26-1-15.07S92.05,80.24,105.62,76.85Z" transform="translate(-46.67 -1.29)"/><path class="a957011e-20c6-4c16-838f-2d1816bddbb0" d="M117.9,71.62s-.19,6.89-.79,8.54-5.51,2.81-7.62.41S109.34,62,109.34,62Z" transform="translate(-46.67 -1.29)"/><path class="f74073af-7879-4ebd-9374-7b31cc0e5577" d="M108.94,65.93c.21-2.28.4-3.9.4-3.9l8.56,9.59s0,1.44-.14,3.16a6.66,6.66,0,0,1-4.29-1.31C111.26,72.07,109.8,68.77,108.94,65.93Z" transform="translate(-46.67 -1.29)"/><path class="a957011e-20c6-4c16-838f-2d1816bddbb0" d="M120.53,51.65s2.12,1.2,3.06,5.39-.27,11.36-2.28,14.52c-1.19,1.88-3.44,2.26-6.74.17s-5.14-8.09-5.71-10.62S111.32,48.83,120.53,51.65Z" transform="translate(-46.67 -1.29)"/><path class="e031a6c8-bad7-472e-b0aa-8944248f3988" d="M121.71,57.72s1,2.67,3.5,2.65,2-2.25,3-3.83,7-6.4.27-10.65-9.8,4.7-12.16,4.09-6.62-3.15-8,.32.75,4.13-.85,5.69,1.9,7.29,2.31,8.39,2.53,2,1.88-.86-1.7-4.89-.92-6.13,2.67-2.52,3-1.18c.14.62,2,2.6,3.29,1.38s2.3.57,3.35.88A1,1,0,0,0,121.71,57.72Z" transform="translate(-46.67 -1.29)"/><path class="a957011e-20c6-4c16-838f-2d1816bddbb0" d="M110.05,63.88c-.07-.44.9-4.31-1.43-4s-2.07,4.39-.26,4.89S110.05,63.88,110.05,63.88Z" transform="translate(-46.67 -1.29)"/><path class="f74073af-7879-4ebd-9374-7b31cc0e5577" d="M109.67,62.42s-.19-1.78-1.14-1.35-.56,2.83.4,3.15S109.67,62.42,109.67,62.42Z" transform="translate(-46.67 -1.29)"/><path class="a01fa89d-5c70-4c2a-8d59-e04861c2cc83" d="M117.89,62.16c-.1.52.12,1,.48,1.07s.74-.31.83-.83-.12-1-.48-1.07S118,61.64,117.89,62.16Z" transform="translate(-46.67 -1.29)"/><path class="a01fa89d-5c70-4c2a-8d59-e04861c2cc83" d="M121.72,62.86c-.1.52.12,1,.48,1.07s.74-.3.84-.83-.13-1-.49-1.06S121.82,62.34,121.72,62.86Z" transform="translate(-46.67 -1.29)"/><path class="a01fa89d-5c70-4c2a-8d59-e04861c2cc83" d="M117.25,69.46a2.94,2.94,0,0,1-1-1.43.16.16,0,1,0-.31.11,3.37,3.37,0,0,0,2.86,2.11s0,0,0,0A3.74,3.74,0,0,1,117.25,69.46Z" transform="translate(-46.67 -1.29)"/><path class="a01fa89d-5c70-4c2a-8d59-e04861c2cc83" d="M119.14,59l.09.64a1.54,1.54,0,0,0-1.73.2S118.37,58.73,119.14,59Z" transform="translate(-46.67 -1.29)"/><path class="a01fa89d-5c70-4c2a-8d59-e04861c2cc83" d="M123.39,61.17a2.94,2.94,0,0,0-1.1-.7l.34-.41S123.49,60.65,123.39,61.17Z" transform="translate(-46.67 -1.29)"/><path class="a01fa89d-5c70-4c2a-8d59-e04861c2cc83" d="M120.32,68.23a13.14,13.14,0,0,0,1-6.87.16.16,0,1,0-.32,0,15.93,15.93,0,0,1-.86,6.42c-.92-.32-1.23-.64-1.34-.37S119.15,67.69,120.32,68.23Z" transform="translate(-46.67 -1.29)"/><path class="e28e5a42-d897-4d5b-b20e-d158c2948b65" d="M137.34,53.07h0a.23.23,0,0,1-.2-.26c1.1-8.27-5.21-9.31-5.48-9.35a.23.23,0,0,1-.19-.26.23.23,0,0,1,.26-.2c.07,0,7,1.14,5.86,9.87A.22.22,0,0,1,137.34,53.07Z" transform="translate(-46.67 -1.29)"/><path class="fd930158-dff1-40b0-a976-2eacd644eb07" d="M128.69,112.93l-14.92-.47v2.88S119,119,120.1,119c.81,0,5.58-.68,8.92.21C128.93,117.12,128.83,115,128.69,112.93Z" transform="translate(-46.67 -1.29)"/><polygon class="b551dd2c-1aec-4d4e-9751-57603c6dd116" points="109.69 110.94 67.1 109.95 67.1 112.42 79.78 113.65 111.66 113.65 109.69 110.94"/><polygon class="bc70060d-d8ed-4635-89e2-b916fccf1a43" points="79.78 113.65 83.22 87.36 115.45 87.92 112.12 114.05 79.78 113.65"/><path class="bb2aaaf2-c595-46da-a53e-e2d43e38c0f2" d="M129.89,88.65l-3.44,26.29,32.34.4.28-2.19c-3.39.29-18.73,1.3-20.11-4-1.2-4.57,4.86-15.55,7.65-20.26Z" transform="translate(-46.67 -1.29)"/><polygon class="b551dd2c-1aec-4d4e-9751-57603c6dd116" points="83.22 87.36 79.78 113.65 112.12 114.05 81.22 111.98 83.22 87.36"/><path class="a957011e-20c6-4c16-838f-2d1816bddbb0" d="M141.58,115.12a11.94,11.94,0,0,1-6.18,2.54c-3.56.28-6.14-1.2-7.16-1.2a24.87,24.87,0,0,0-5.68.28c-1.57.46-7-2.6-7-2.6s-2.37-3.23-1.7-3.42,3.78,3.8,4.56,3.8-3-3.47-2.17-3.81,2.73,3.58,4.67,3.81,2.93-.16,2.17-.92-2.87-1.71-2.13-2S141.05,114.59,141.58,115.12Z" transform="translate(-46.67 -1.29)"/><path class="a957011e-20c6-4c16-838f-2d1816bddbb0" d="M117.83,103.86a12,12,0,0,0-4.06-1.11c-1.73,0-4.43,1.11-9.36,1.11s-21.84.19-22.82,2.86-3.13,6.15,1.29,7.68,26-6.36,28.18-6.85c0,0,1.35,2,2.71,2s2.46-.06,2.46-.06,2.37.34,2.77-.06,1.72-.37,1.72-.37,2.71,2.77,3.76,2.77-1.51-4.22-2.4-5.11A34.77,34.77,0,0,0,117.83,103.86Z" transform="translate(-46.67 -1.29)"/><path class="bcb3b97d-7781-4c94-9721-776419eb0885" d="M102.48,78.11s3.82,7.73.91,13.31-6.86,12.09-6.86,12.09L84.32,99.32S96.33,78.71,102.48,78.11Z" transform="translate(-46.67 -1.29)"/><path class="a9197900-6ee0-44c5-bed2-7ea104f5c860" d="M102.48,78.11c2.21,3.92,3.37,9.29,1.29,13.58a108.55,108.55,0,0,1-7.24,11.82C102.37,91.5,106.56,89.37,102.48,78.11Z" transform="translate(-46.67 -1.29)"/><rect class="bb2aaaf2-c595-46da-a53e-e2d43e38c0f2" x="28.16" y="42.62" width="13.26" height="23.14" rx="6.63"/><rect class="bca5b10a-4cba-4edd-ac93-ce5d28fbc6f3" x="29.59" y="45.68" width="10.79" height="17.62"/><path class="b2c3838c-d68a-40e3-b8e9-35edac049e6b" d="M82.73,65.66a1.09,1.09,0,1,1-1.09-1.08A1.08,1.08,0,0,1,82.73,65.66Z" transform="translate(-46.67 -1.29)"/><path class="fffece3a-285b-4b2d-87c1-171de1b6114f" d="M132.58,1.29a10.32,10.32,0,0,1,10.3,8.61,8.79,8.79,0,0,1-1.2,17.48l-28,.35A7.37,7.37,0,1,1,113.52,13h.15a8.3,8.3,0,0,1,8.1-7.15,8.63,8.63,0,0,1,2.21.27A10.29,10.29,0,0,1,132.58,1.29Z" transform="translate(-46.67 -1.29)"/><rect class="bb2aaaf2-c595-46da-a53e-e2d43e38c0f2" x="127.08" y="42.99" width="29.58" height="20.75"/><rect class="f192d3e7-7d3e-4def-9a9f-d40e825d1c79" x="128.22" y="43.9" width="27.24" height="16.9"/><path class="e59724f8-0ffe-4743-9bf2-f5e916aa6b55" d="M199,63.89a.35.35,0,1,1-.35-.35A.35.35,0,0,1,199,63.89Z" transform="translate(-46.67 -1.29)"/></svg>